<svg xmlns="http://www.w3.org/2000/svg" xmlns:xlink="http://www.w3.org/1999/xlink" xmlns:inkscape="http://www.inkscape.org/namespaces/inkscape" version="1.1" width="360" height="360" viewBox="0 0 360 360">
<defs>
<clipPath id="clip_0">
<path transform="matrix(1,0,0,-1,0,360)" d="M0 360H360V0H0Z"/>
</clipPath>
</defs>
<g inkscape:groupmode="layer" inkscape:label="Layer 1">
<path transform="matrix(1,0,0,-1,143.8354,262.8584)" d="M0 0H1.095V-7.356H8.24V-8.24H0Z" fill="#ffffff"/>
<path transform="matrix(1,0,0,-1,162.916,262.8584)" d="M0 0H1.267L5.64-8.24H4.461L3.359-6.098H-2.139L-3.253-8.24H-4.432ZM2.946-5.214 .66-.78-1.626-5.214Z" fill="#ffffff"/>
<g clip-path="url(#clip_0)">
<path transform="matrix(1,0,0,-1,175.8853,262.8584)" d="M0 0H4.763C5.703 0 7.956 0 7.956-2.159 7.959-2.947 7.449-3.645 6.699-3.874 7.603-4.142 8.228-4.973 8.235-5.92 8.235-8.148 5.913-8.24 4.206-8.24H-.005ZM.997-3.525H4.496C5.634-3.525 6.965-3.331 6.965-2.171 6.965-.852 5.628-.84 4.16-.84H.985ZM.997-7.377H4.854C6.055-7.377 7.222-7.172 7.222-5.914 7.222-4.771 6.317-4.365 4.946-4.365H.962Z" fill="#ffffff"/>
<path transform="matrix(1,0,0,-1,195.8643,262.8584)" d="M0 0H1.278L5.651-8.24H4.473L3.371-6.098H-2.127L-3.241-8.24H-4.42ZM2.946-5.214 .66-.78-1.668-5.214Z" fill="#ffffff"/>
<path transform="matrix(1,0,0,-1,208.7861,269.3105)" d="M0 0C.514-.669 1.363-1.774 4.01-1.774 5.372-1.774 7.23-1.388 7.23-.029 7.23 2.62-.477 .296-.477 3.833-.477 5.692 1.26 6.452 3.667 6.452 6.075 6.452 7.432 5.505 8.044 4.642L7.268 4.038C6.9 4.448 6.045 5.565 3.643 5.565 1.87 5.565 .587 5.106 .587 4.008 .587 1.364 8.294 3.888 8.294-.023 8.294-1.49 6.857-2.703 3.856-2.703 .966-2.703-.104-1.496-.861-.687Z" fill="#ffffff"/>
<path transform="matrix(1,0,0,-1,226.9854,262.8584)" d="M0 0H1.271L5.659-8.24H4.477L3.371-6.098H-2.111L-3.229-8.24H-4.412ZM2.957-5.214 .662-.78-1.632-5.214Z" fill="#ffffff"/>
<path transform="matrix(1,0,0,-1,239.916,269.3105)" d="M0 0C.513-.669 1.362-1.774 4.009-1.774 5.372-1.774 7.229-1.388 7.229-.029 7.229 2.62-.478 .296-.478 3.833-.478 5.692 1.259 6.452 3.666 6.452 6.075 6.452 7.432 5.505 8.043 4.642L7.267 4.038C6.899 4.448 6.044 5.565 3.643 5.565 1.87 5.565 .586 5.106 .586 4.008 .586 1.364 8.293 3.888 8.293-.023 8.293-1.49 6.856-2.703 3.856-2.703 .965-2.703-.104-1.496-.862-.687Z" fill="#ffffff"/>
<path transform="matrix(1,0,0,-1,175.8799,286.8828)" d="M0 0C-.886-1.809-2.425-2.526-4.437-2.526-7.646-2.526-9.155-.5-9.155 2.033-9.155 5.049-7.234 6.629-4.449 6.629-2.676 6.629-.869 5.911-.126 4.132L-.989 3.71C-1.561 5.14-2.854 5.736-4.42 5.736-6.788 5.736-8.114 4.38-8.114 1.9-8.114-.103-6.828-1.592-4.329-1.592-2.902-1.68-1.559-.877-.897 .459Z" fill="#ffffff"/>
<path transform="matrix(1,0,0,-1,186.6973,280.2539)" d="M0 0H1.272L5.663-8.24H4.479L3.373-6.098H-2.106L-3.225-8.24H-4.408ZM2.959-5.214 .663-.78-1.633-5.214Z" fill="#ffffff"/>
<path transform="matrix(1,0,0,-1,250.3594,232.91211)" d="M0 0C-.808-1.411-1.704-2.77-2.684-4.066-3.474-5.109-4.374-6.064-5.368-6.916-6.234-7.651-7.205-8.254-8.249-8.704-9.293-9.142-10.394-9.431-11.518-9.563-12.536-9.705-13.562-9.797-14.59-9.837-15.567-9.873-16.363-9.891-16.975-9.891-18.349-9.898-19.72-9.787-21.073-9.557-22.329-9.334-23.125-8.965-23.458-8.448-23.851-7.725-24.069-6.921-24.097-6.099-24.188-5.046-24.252-3.929-24.287-2.748V-1.39 .298 7.118C-24.287 7.571-24.287 7.613-24.431 7.715-25.141 8.156-28.546 9.384-28.546 9.384L-23.978 9.414C-24.14 9.823-24.219 10.261-24.21 10.701V12.114 14.469 17.992C-24.21 20.432-24.21 21.182-24.127 23.03-24.043 24.879-24.007 26.095-23.93 26.685-23.338 26.785-22.74 26.851-22.141 26.882-21.31 26.937-20.514 26.965-19.755 26.965-17.682 26.985-15.609 26.874-13.552 26.632-12.359 26.529-11.186 26.269-10.062 25.856-7.441 24.564-4.637 22.055-1.646 18.326L-1.091 18.601-4.855 27.734H-35.572V27.18C-34.754 27.066-33.941 26.909-33.139 26.709-32.447 26.509-31.826 26.116-31.35 25.576-31.086 25.267-30.904 24.896-30.824 24.497-30.687 23.943-30.596 23.379-30.551 22.81-30.494 22.182-30.457 21.518-30.437 20.818-30.417 20.119-30.417 19.437-30.437 18.773V6.152 2.915C-30.437 1.866-30.455 .898-30.491 .012V-2.093C-30.491-2.685-30.509-3.281-30.544-3.881-30.578-4.464-30.642-5.046-30.735-5.622-30.827-6.175-30.928-6.663-31.039-7.089-31.115-7.44-31.266-7.772-31.481-8.061-32.021-8.667-32.695-9.141-33.449-9.443-34.276-9.785-35.142-10.027-36.025-10.165V-10.72H-2.171L.597-.149Z" fill="#ffffff"/>
<path transform="matrix(1,0,0,-1,243.5498,222.874)" d="M0 0C-1.009 .657-4.65 1.925-4.65 5.764V5.794H-5.016C-5.138 5.086-5.275 4.448-5.428 3.88-5.558 3.356-5.756 2.853-6.018 2.384-6.272 1.953-6.609 1.58-7.008 1.285-7.47 .956-7.984 .713-8.528 .567-8.853 .48-9.185 .425-9.519 .397H-9.725-33.794V-.393H-9.577C-9.024-.429-8.482-.569-7.98-.81-7.539-1.022-7.139-1.316-6.802-1.679-6.353-2.26-5.998-2.912-5.752-3.61-5.434-4.419-5.186-5.255-5.01-6.108H-4.645C-4.645-2.391-.996-1.002 .006-.345 .055-.301 .083-.237 .082-.171 .08-.104 .051-.042 0 0" fill="#ffffff"/>
<path transform="matrix(1,0,0,-1,0,360)" d="M212.502 136.511H213.418V132.849H212.502Z" fill="#ffffff"/>
<path transform="matrix(1,0,0,-1,0,360)" d="M215.249 136.511H216.165V132.849H215.249Z" fill="#ffffff"/>
<path transform="matrix(1,0,0,-1,92.3335,243.6318)" d="M0 0V.555C1.16 .625 2.303 .878 3.386 1.305 4.101 1.546 4.728 1.999 5.186 2.604 5.29 2.811 5.355 3.035 5.38 3.266 5.435 3.599 5.48 3.996 5.515 4.457 5.55 4.918 5.578 5.379 5.598 5.839V7.222C5.633 8.438 5.65 9.69 5.65 10.981V17.952C5.65 18.429 8.525 19.691 8.525 19.691H-18.522C-18.522 19.691-15.929 18.446-15.929 17.982V7.8C-15.929 6.731-15.911 5.698-15.876 4.701-15.908 3.968-15.736 3.239-15.382 2.599-14.913 1.948-14.268 1.449-13.524 1.162-12.773 .848-11.981 .646-11.172 .566V.013H-27.236V.566C-26.338 .708-25.46 .956-24.62 1.305-23.891 1.58-23.236 2.025-22.709 2.604-22.527 2.879-22.407 3.189-22.356 3.516-22.256 4-22.184 4.489-22.139 4.981-22.083 5.533-22.038 6.129-22.003 6.769-21.968 7.408-21.95 8.025-21.95 8.622V10.725C-21.95 11.61-21.933 12.578-21.897 13.627V16.862 31.471C-21.897 32.139-21.897 32.752-21.979 33.324-22.027 33.846-22.11 34.363-22.227 34.873-22.305 35.267-22.475 35.637-22.72 35.952-23.216 36.566-23.866 37.033-24.602 37.304-25.422 37.603-26.275 37.803-27.142 37.9V38.454H-10.808V37.9C-11.359 37.816-11.907 37.705-12.448 37.566-13.01 37.427-13.544 37.193-14.03 36.875-14.514 36.538-14.916 36.094-15.206 35.576-15.558 34.933-15.746 34.209-15.753 33.473-15.792 32.182-15.819 30.792-15.835 29.303-15.851 27.812-15.851 26.383-15.835 25.013V20.806H5.68V28.319C5.68 29.276 5.662 30.365 5.627 31.584 5.592 32.283 5.547 33.013 5.492 33.771 5.466 34.422 5.286 35.058 4.968 35.624 4.467 36.495 3.671 37.153 2.728 37.477 1.91 37.714 1.067 37.854 .217 37.895V38.448H16.652V37.895C15.765 37.779 14.9 37.528 14.088 37.149 13.302 36.811 12.649 36.218 12.23 35.463 12.059 35.126 11.947 34.761 11.901 34.385 11.826 33.924 11.771 33.407 11.736 32.836 11.701 32.264 11.683 31.684 11.683 31.096V14.413 11.208 7.555C11.683 6.486 11.711 5.494 11.766 4.576 11.756 3.935 11.897 3.299 12.177 2.724 12.626 2.006 13.298 1.46 14.088 1.174 14.936 .872 15.816 .673 16.71 .578V.024Z" fill="#ffffff"/>
<path transform="matrix(1,0,0,-1,157.7187,231.7773)" d="M0 0C-2.146-4.806-6.128-8.558-11.064-10.421-16.192-12.332-21.839-12.332-26.968-10.421-29.378-9.516-31.588-8.151-33.476-6.404-35.356-4.652-36.86-2.538-37.896-.188-38.997 2.318-39.549 5.03-39.517 7.768-39.561 10.61-38.979 13.429-37.813 16.023-36.736 18.39-35.174 20.506-33.228 22.234-31.25 23.962-28.956 25.29-26.471 26.144-23.85 27.062-21.09 27.525-18.312 27.512-15.438 27.558-12.585 27.01-9.934 25.902-5.216 23.93-1.515 20.117 .308 15.352 1.223 12.995 1.688 10.488 1.681 7.962 1.702 5.219 1.129 2.502 0 0M-6.017 14.461C-6.549 16.594-7.42 18.629-8.597 20.488-9.702 22.244-11.173 23.742-12.91 24.882-14.729 26.034-16.85 26.621-19.004 26.568-21.185 26.624-23.333 26.037-25.181 24.882-26.916 23.762-28.378 22.271-29.464 20.518-30.62 18.641-31.455 16.586-31.938 14.438-32.468 12.182-32.736 9.872-32.736 7.555-32.745 5.188-32.451 2.83-31.861 .536-31.334-1.577-30.452-3.588-29.251-5.408-28.135-7.091-26.652-8.501-24.915-9.536-23.072-10.599-20.972-11.136-18.844-11.087-16.702-11.143-14.594-10.544-12.804-9.371-11.088-8.215-9.638-6.71-8.549-4.954-7.381-3.074-6.519-1.021-5.993 1.127-5.438 3.329-5.158 5.591-5.159 7.861-5.164 10.088-5.451 12.306-6.011 14.461Z" fill="#ffffff"/>
<path transform="matrix(1,0,0,-1,206.4961,215.0264)" d="M0 0C-.294 .654-.644 1.335-1.049 2.043-1.455 2.751-1.87 3.414-2.295 4.032-2.721 4.65-3.136 5.222-3.541 5.746-3.853 6.169-4.203 6.562-4.591 6.92-5.291 7.604-6.157 8.101-7.106 8.363-8.24 8.629-9.399 8.767-10.564 8.774H-12.389-13.939-17.605V5.071 .165-19.79C-17.605-20.843-17.577-21.85-17.522-22.812-17.537-23.527-17.356-24.232-16.998-24.855-16.438-25.66-15.605-26.24-14.648-26.492-13.746-26.756-12.831-26.973-11.906-27.144V-27.689H-29.947V-27.144C-29.011-27.039-28.085-26.856-27.181-26.598-26.16-26.253-25.258-25.63-24.581-24.802-24.36-24.547-24.216-24.235-24.164-23.904-24.064-23.437-23.99-22.965-23.943-22.489-23.888-21.966-23.851-21.395-23.83-20.775-23.811-20.157-23.811-19.559-23.83-18.979V-16.967C-23.83-16.134-23.812-15.208-23.776-14.19V-11.027 8.751H-27.431-28.952-30.806C-31.976 8.748-33.14 8.582-34.264 8.258-35.208 7.942-36.068 7.421-36.78 6.731-37.161 6.376-37.504 5.982-37.805 5.559-38.203 5.05-38.6 4.496-38.998 3.897-39.428 3.272-39.826 2.626-40.189 1.961-40.556 1.318-40.861 .645-41.102-.053L-41.603 .112-39.903 10.518C-39.053 10.334-38.268 10.189-37.549 10.083-36.512 9.951-35.47 9.878-34.424 9.866-33.021 9.831-31.768 9.804-30.662 9.784-29.558 9.765-28.488 9.765-27.455 9.784H-16.938-13.73L-10.517 9.837H-6.755C-5.742 9.852-4.733 9.951-3.738 10.136-2.942 10.301-2.122 10.51-1.275 10.764L.513 .142Z" fill="#ffffff"/>
<path transform="matrix(1,0,0,-1,295.6689,243.6318)" d="M0 0H-35.558V.555C-34.624 .706-33.707 .948-32.819 1.276-32.004 1.551-31.271 2.026-30.689 2.658-30.471 2.949-30.311 3.279-30.218 3.631-30.077 4.11-29.976 4.601-29.913 5.097-29.842 5.649-29.778 6.229-29.723 6.837-29.667 7.445-29.64 8.042-29.64 8.626V10.729C-29.64 11.616-29.621 12.584-29.586 13.633V16.87 31.379C-29.586 32.042-29.613 32.66-29.669 33.232-29.716 33.744-29.8 34.252-29.92 34.752-30.003 35.136-30.175 35.495-30.421 35.802-30.975 36.453-31.691 36.948-32.497 37.238-33.38 37.572-34.302 37.795-35.241 37.899V38.454H-17.57V37.899C-18.052 37.824-18.624 37.713-19.288 37.565-19.948 37.419-20.584 37.176-21.174 36.845-21.782 36.496-22.303 36.013-22.694 35.432-23.148 34.72-23.389 33.893-23.387 33.048-23.427 31.756-23.455 30.575-23.47 29.507-23.47 28.434-23.507 28.768-23.524 27.719-23.542 26.669-23.524 25.614-23.524 24.512V14.42 11.439 8.036C-23.488 6.844-23.442 5.719-23.387 4.662-23.39 3.83-23.185 3.01-22.79 2.277-22.541 2.026-22.237 1.836-21.901 1.723-21.383 1.516-20.846 1.358-20.297 1.252-19.668 1.121-18.985 1.01-18.25 .918-17.516 .827-16.776 .781-16.037 .781H-14.623C-13.975 .781-13.265 .819-12.493 .895-11.717 .95-10.922 1.033-10.106 1.145-9.377 1.237-8.654 1.385-7.947 1.586-6.641 1.916-5.397 2.458-4.266 3.189-3.317 3.826-2.47 4.6-1.748 5.484-1.041 6.35-.439 7.296 .041 8.304 .519 9.317 .98 10.378 1.426 11.487L1.98 11.32Z" fill="#ffffff"/>
<path transform="matrix(1,0,0,-1,183.8164,135.2129)" d="M0 0C-1.299-.85-2.292-2.092-2.834-3.547-3.228-4.371-3.474-5.894-3.572-8.117-3.67-10.34-3.781-12.704-3.902-15.21-4.013-17.575-4.109-20.361-4.192-23.569-4.274-26.777-4.316-30.221-4.316-33.902V-39.17C-4.316-41.093-4.302-43.063-4.274-45.081-4.247-47.099-4.233-49.089-4.233-51.052V-56.401C-4.225-56.602-4.3-56.796-4.44-56.939-4.603-57.082-4.814-57.156-5.03-57.146-5.611-57.074-6.143-56.78-6.512-56.324-11.171-50.945-15.42-46.005-19.257-41.505L-30.237-28.618C-33.72-24.527-37.131-20.533-40.473-16.635-43.837-12.757-48.838-7.094-52.557-2.956-52.557-2.956-51.11-5.001-51.11-6.195V-39.3C-51.11-42.098-51.042-44.622-50.904-46.872-50.766-49.122-50.423-50.797-49.876-51.896-49.292-53.147-48.29-54.152-47.043-54.74-45.357-55.479-43.563-55.938-41.73-56.1V-56.922H-61.955V-56.1C-60.6-55.927-59.273-55.581-58.005-55.071-56.712-54.566-55.617-53.656-54.882-52.477-54.115-51.321-53.621-49.619-53.401-47.369-53.18-45.119-53.015-42.429-52.905-39.3-52.795-36.935-52.712-34.149-52.657-30.94-52.602-27.733-52.574-24.289-52.574-20.607V-10.558C-52.574-9.459-52.602-8.113-52.657-6.521-52.763-5.146-53.166-3.811-53.837-2.607-54.375-1.676-55.103-.87-55.975-.243-56.784 .328-57.69 .747-58.649 .993-59.555 1.23-60.476 1.41-61.406 1.531V2.364H-44.705L-5.744-43.249V-15.252C-5.744-13.057-5.772-10.956-5.827-8.95-5.815-7.344-6.065-5.747-6.565-4.221-7.109-2.689-8.134-1.374-9.487-.473-10.884 .484-12.899 1.156-15.532 1.542V2.364H4.882V1.542C3.165 1.374 1.502 .849 0 0" fill="#ffffff"/>
<path transform="matrix(1,0,0,-1,237.7256,192.3604)" d="M0 0H-49.46L-49.79 .593-8.29 57.941H-18.618C-20.581 57.941-22.453 57.928-24.235 57.9-26.018 57.873-27.425 57.831-28.457 57.776-30.388 57.698-32.289 57.278-34.075 56.538-35.709 55.843-37.24 54.926-38.626 53.813-39.281 53.259-40.089 52.503-41.046 51.543-42.004 50.583-42.976 49.525-43.961 48.368-44.946 47.214-45.889 46.045-46.787 44.86-47.596 43.815-48.348 42.727-49.042 41.602L-49.943 41.934-43.955 59.512C-43.189 59.456-41.796 59.415-39.774 59.387L-32.556 59.304C-29.769 59.277-26.762 59.263-23.535 59.263H2.679L2.927 58.765-38.491 1.499C-35.743 1.443-33.282 1.416-31.107 1.416H-24.465C-23.539 1.416-22.35 1.443-20.897 1.499-19.444 1.555-17.928 1.665-16.346 1.831-11.903 2.318-7.723 4.188-4.387 7.181-.635 10.539 2.538 14.499 5.005 18.899L5.906 18.567Z" fill="#ffffff"/>
<path transform="matrix(1,0,0,-1,280.0469,192.3359)" d="M0 0V.821C.396 .853 .792 .907 1.182 .986 1.858 1.114 2.52 1.312 3.154 1.578 3.829 1.852 4.444 2.253 4.968 2.76 5.486 3.25 5.77 3.938 5.747 4.651 5.688 5.476 5.536 6.291 5.293 7.081 4.989 8.204 4.564 9.583 4.017 11.219 3.47 12.854 2.84 14.65 2.127 16.609 1.477 18.382 1.223 19.104 .484 21.037 .372 21.32 3.302 22.81 3.302 22.81H-22.05C-22.873 20.721-23.661 18.731-24.413 16.839-25.165 14.948-25.933 13.041-26.717 11.118-27.87 8.154-28.445 6.068-28.441 4.858-28.466 4.203-28.229 3.566-27.785 3.085-27.309 2.58-26.733 2.178-26.096 1.902-25.386 1.594-24.64 1.373-23.875 1.247-23.088 1.109-22.334 .985-21.613 .874V.053H-39.162V.957C-37.873 1.076-36.625 1.47-35.5 2.109-34.857 2.441-34.261 2.856-33.728 3.345-33.015 4.19-32.383 5.102-31.838 6.063-30.645 8.111-29.573 10.227-28.631 12.4-27.477 14.981-26.187 17.917-24.762 21.208L-20.36 31.375C-18.853 34.858-17.358 38.371-15.877 41.914-14.396 45.457-12.999 48.762-11.684 51.833L-12.505 53.647C-11.55 54.037-10.645 54.537-9.806 55.136-9.051 55.702-8.349 56.335-7.708 57.028-7.155 57.621-6.646 58.252-6.184 58.919-5.79 59.522-5.476 60.017-5.239 60.403H-4.584C-2.901 55.863-1.296 51.546 .236 47.452 1.769 43.358 3.235 39.417 4.637 35.63 6.035 31.843 7.392 28.179 8.707 24.636 10.022 21.093 11.333 17.602 12.641 14.162 13.243 12.459 13.805 11.047 14.324 9.924L16.097 6.094C16.317 5.685 16.563 5.289 16.835 4.912 17.279 4.296 17.79 3.73 18.359 3.228 19.064 2.602 19.861 2.088 20.722 1.702 21.758 1.239 22.877 .988 24.012 .963V-.024ZM-10.779 49.893C-11.11 49.18-11.591 48.055-12.221 46.519-12.852 44.981-13.639 43.116-14.584 40.92-15.517 38.726-16.545 36.241-17.667 33.467L-21.329 24.453H-.827C-1.76 26.923-2.705 29.394-3.662 31.865-4.619 34.336-5.553 36.7-6.462 38.958-7.367 41.235-8.19 43.322-8.931 45.218-9.671 47.113-10.288 48.672-10.779 49.893" fill="#ffffff"/>
<path transform="matrix(1,0,0,-1,95.0854,192.2949)" d="M0 0V.82C.397 .852 .791 .907 1.181 .986 1.857 1.114 2.518 1.312 3.153 1.577 3.828 1.851 4.443 2.252 4.965 2.759 5.484 3.248 5.767 3.936 5.745 4.648 5.686 5.473 5.534 6.287 5.29 7.076 4.987 8.198 4.562 9.576 4.015 11.211 3.468 12.845 2.838 14.641 2.125 16.598 1.477 18.37 1.222 19.091 .484 21.022 .372 21.306 3.301 22.794 3.301 22.794H-22.022C-22.845 20.707-23.632 18.718-24.384 16.828-25.135 14.938-25.923 13.002-26.745 11.021-27.898 8.061-28.473 5.976-28.469 4.767-28.494 4.112-28.258 3.476-27.814 2.995-27.337 2.49-26.763 2.088-26.125 1.813-25.415 1.505-24.669 1.284-23.905 1.157-23.118 1.02-22.364 .896-21.644 .785V-.035H-39.144V.868C-37.855 .987-36.608 1.38-35.483 2.02-34.841 2.351-34.245 2.767-33.712 3.255-33 4.1-32.367 5.01-31.823 5.972-30.63 8.017-29.559 10.132-28.617 12.304-27.463 14.883-26.174 17.817-24.75 21.105L-20.351 31.265C-18.844 34.746-17.35 38.256-15.87 41.796-14.39 45.336-12.993 48.641-11.678 51.708L-12.499 53.522C-11.549 53.941-10.651 54.47-9.824 55.099-9.07 55.665-8.369 56.297-7.728 56.989-7.176 57.582-6.667 58.213-6.205 58.879-5.812 59.481-5.497 59.976-5.26 60.362H-4.605C-2.905 55.81-1.287 51.49 .248 47.402 1.783 43.314 3.25 39.376 4.647 35.588 6.044 31.804 7.4 28.142 8.715 24.602 10.029 21.062 11.346 17.565 12.665 14.111 13.267 12.41 13.828 10.998 14.347 9.876L16.119 6.049C16.339 5.64 16.585 5.245 16.856 4.867 17.301 4.252 17.812 3.688 18.379 3.184 19.085 2.56 19.881 2.045 20.741 1.66 21.777 1.197 22.896 .946 24.03 .922V-.065ZM-10.775 49.859C-11.105 49.146-11.585 48.022-12.215 46.486-12.845 44.951-13.632 43.086-14.577 40.893-15.51 38.7-16.537 36.217-17.659 33.444L-21.319 24.437H-.82C-1.753 26.905-2.698 29.375-3.654 31.843-4.611 34.313-5.544 36.675-6.453 38.932-7.358 41.208-8.181 43.293-8.921 45.188-9.661 47.081-10.279 48.639-10.775 49.859" fill="#ffffff"/>
<path transform="matrix(1,0,0,-1,130.8545,262.8584)" d="M0 0H1.271L5.656-8.24H4.475L3.398-6.098H-2.116L-3.233-8.24H-4.415ZM2.956-5.214 .662-.78-1.631-5.214Z" fill="#ffffff"/>
<path transform="matrix(1,0,0,-1,119.1152,269.4873)" d="M0 0C-.886-1.809-2.425-2.526-4.437-2.526-7.646-2.526-9.156-.5-9.156 2.033-9.156 5.049-7.234 6.629-4.449 6.629-2.676 6.629-.869 5.911-.126 4.132L-.989 3.71C-1.561 5.14-2.854 5.736-4.42 5.736-6.788 5.736-8.115 4.38-8.115 1.9-8.115-.103-6.828-1.592-4.329-1.592-2.902-1.68-1.559-.877-.898 .459Z" fill="#ffffff"/>
<path transform="matrix(1,0,0,-1,132.8486,92.8374)" d="M0 0C8.646 8.065 16.991 10.653 25.418 10.653 31.278 10.653 37.197 9.398 43.086 7.768 44.771 9.249 46.384 10.801 47.916 12.354 50.001 12.37 52.078 12.618 54.111 13.091L54.329 12.646C52.209 11.016 49.617 9.023 46.932 6.697 54.841 4.479 64.011 1.82 72.309 1.82 80.427 1.79 88.353 4.312 94.988 9.035L95.219 7.988C86.072 2.136 77.356 .113 69.076 .113 60.654 .113 51.508 2.492 43.816 4.544 43.816 4.544 43.28 4.146 42.998 3.884 42.715 3.623 25.948-11.931 18.174-18.902 15.33-21.649 12.739-25.022 12.739-26.949 12.739-27.834 13.251-28.138 14.058-28.138 15.825-28.138 18.822-26.354 20.212-25.444 23.657-23.226 28.321-19.776 33.451-16.374L33.746-16.968C28.693-20.299 24.246-23.814 20.436-26.11 18.239-27.442 15.377-29.024 13.327-29.024 11.861-29.024 10.836-28.358 10.836-26.586 10.836-23.612 13.97-19.58 17.314-16.1 25.454-7.94 33.041-.751 40.077 5.466 33.922 7.096 27.916 8.5 22.132 8.5 14.517 8.5 7.191 6.121 .088-.969Z" fill="#ffffff"/>
<path transform="matrix(1,0,0,-1,167.6304,111.9839)" d="M0 0C7.415 4.962 20.425 12.57 24.316 12.57 25.419 12.57 26.152 12.124 26.152 10.866 26.152 4.879 9.623-3.861 9.623-7.787 9.623-8.603 9.989-8.979 10.726-8.979 13.442-8.979 21.092-3.742 31.081 2.937L31.376 2.341C21.624-4.183 13.601-9.842 9.782-9.842 8.211-9.842 6.948-8.895 6.948-6.696 6.948-1.734 24.239 9.472 24.239 11.545 24.239 11.694 24.091 11.766 23.874 11.766 19.983 11.766 5.207 2.83-1.913-2.133-5.655-5.761-10.49-9.878-14.746-9.878-15.042-9.878-15.555-9.878-15.555-9.657-15.555-9.586-15.478-9.437-15.26-9.289 .673 3.086 32.468 41.394 41.423 41.394 42.527 41.394 43.041 40.875 43.041 39.838 43.041 34.875 29.764 19.583 7.031 8.519 4.611 5.541 2.379 3.193 .909 1.12 .63 .728 .326 .354 0 0M41.79 40.654C35.549 40.654 18.531 22.668 7.81 9.556 33.595 23.258 42.156 37.098 42.156 40.059 42.156 40.428 42.007 40.654 41.79 40.654" fill="#ffffff"/>
<path transform="matrix(1,0,0,-1,222.2803,109.0215)" d="M0 0 .293-.586C-5.608-4.452-10.783-8.248-14.868-10.436-17.582-11.887-20.586-12.708-23.659-12.84-26.502-12.84-29.005-12.072-29.005-9.321-29.005-3.414-18.361 9.133-4.22 9.133-2.837 9.133-2.25 8.693-2.25 7.96-2.25 5.614-9.441 .598-19.135-.839-23.109-4.699-26.238-8.347-26.238-10.171-26.238-11.702-24.27-11.967-22.593-11.967-19.985-11.834-17.442-11.109-15.156-9.849-11.662-7.878-6.194-4.083 0 0M-4.255 8.57C-7.314 8.57-13.702 4.346-18.59-.229-10.865 .944-3.018 6.036-3.018 7.937-3.018 8.353-3.381 8.57-4.255 8.57" fill="#ffffff"/>
</g>
</g>
</svg>
